<?xml version="1.0" encoding="UTF-8"?>
<svg width="186px" height="186px" viewBox="0 0 186 186" version="1.1" xmlns="http://www.w3.org/2000/svg" xmlns:xlink="http://www.w3.org/1999/xlink">
    <defs>
        <linearGradient x1="77.6290732%" y1="50.1487497%" x2="11.705677%" y2="49.6823993%" id="linearGradient-1">
            <stop stop-color="#4F23EB" offset="3%"></stop>
            <stop stop-color="#BA3DFD" offset="95%"></stop>
        </linearGradient>
        <linearGradient x1="99.9828009%" y1="50.3627187%" x2="-0.0598136575%" y2="49.7909033%" id="linearGradient-2">
            <stop stop-color="#4F23EB" offset="18%"></stop>
            <stop stop-color="#C841FF" offset="100%"></stop>
        </linearGradient>
        <linearGradient x1="99.6469715%" y1="50.3334121%" x2="15.8625285%" y2="49.8995726%" id="linearGradient-3">
            <stop stop-color="#F4BC44" offset="8%"></stop>
            <stop stop-color="#E93D6C" offset="94%"></stop>
        </linearGradient>
        <linearGradient x1="99.9828009%" y1="50.3627195%" x2="-0.0598136575%" y2="49.7909029%" id="linearGradient-4">
            <stop stop-color="#4F23EB" offset="18%"></stop>
            <stop stop-color="#C841FF" offset="100%"></stop>
        </linearGradient>
        <linearGradient x1="101.342614%" y1="50.1818182%" x2="5.79261364%" y2="49.7272727%" id="linearGradient-5">
            <stop stop-color="#E93F6A" stop-opacity="0" offset="1%"></stop>
            <stop stop-color="#82233B" offset="95%"></stop>
        </linearGradient>
        <linearGradient x1="63.233113%" y1="67.1377184%" x2="26.0215668%" y2="30.3699897%" id="linearGradient-6">
            <stop stop-color="#4F23EB" stop-opacity="0" offset="0%"></stop>
            <stop stop-color="#3712BB" stop-opacity="0.48" offset="34%"></stop>
            <stop stop-color="#250595" stop-opacity="0.86" offset="64%"></stop>
            <stop stop-color="#1E0087" offset="79%"></stop>
        </linearGradient>
    </defs>
    <g id="Logo" transform="translate(-177.000000, -251.000000)" fill-rule="nonzero">
        <g id="ByteTrade-logo_01" transform="translate(177.149536, 251.090000)">
            <path d="M21.6904644,89.1 L21.6904644,4.54747351e-13 L0.000464431445,22.08 L0.000464431445,89.08 C-0.0923474925,107.271282 13.7362003,122.515248 31.8504644,124.19 L31.8504644,102 C25.880091,100.579503 21.6723567,95.237006 21.6904644,89.1 L21.6904644,89.1 Z" id="路径" fill="#E9406A"></path>
            <path d="M125.560464,61.45 L66.4004644,61.45 C47.2204644,61.45 31.6204644,77.26 31.6204644,96.68 L31.6204644,163.82 L31.6204644,163.82 L53.3104644,185.82 L53.3104644,96.68 C53.2716761,89.4086072 59.129137,83.4795502 66.4004644,83.43 L125.560464,83.43 L126.710464,83.43 C130.55674,77.1929362 132.589392,70.0076684 132.580494,62.68 L132.580494,61.92 C130.251583,61.6270853 127.907608,61.4701526 125.560464,61.45 Z" id="路径" fill="url(#linearGradient-1)"></path>
            <path d="M153.990464,68.98 C153.658724,72.4928148 153.033202,75.9716531 152.120464,79.38 C151.049458,83.3403839 149.575076,87.1804767 147.720464,90.84 C157.909034,98.2715169 163.92705,110.129127 163.910464,122.74 L163.910464,124.49 C163.910464,146.17 146.490464,163.81 125.090464,163.81 L68.5604644,163.81 L68.5604644,185.81 L125.080464,185.81 C158.440464,185.81 185.59072,158.31 185.59072,124.52 L185.59072,122.77 C185.636018,100.408449 173.534499,79.7860819 153.990464,68.92 C153.990464,68.92 153.990464,68.92 153.990464,68.98 Z" id="路径" fill="url(#linearGradient-2)"></path>
            <path d="M126.720464,83.79 C119.715398,95.3296374 107.219712,102.402953 93.7204644,102.47 L53.3204644,102.47 L53.3204644,124.470004 L93.7704644,124.470004 C102.404241,124.473136 110.93517,122.596332 118.770464,118.97 C122.581197,117.208193 126.197484,115.053168 129.560464,112.54 C132.93961,110.024278 136.052486,107.169412 138.850464,104.02 C145.109895,96.9342178 149.663004,88.5087425 152.160464,79.39 C153.077999,75.9827263 153.703594,72.5034797 154.030464,68.99 C154.217131,67.03 154.313798,65.0466667 154.320464,63.04 L154.320464,61.29 C154.320464,27.49 127.180464,4.54747351e-13 93.8204644,4.54747351e-13 L37.6204644,4.54747351e-13 L37.6204644,22 L93.7704644,22 C115.170464,22 132.580464,39.64 132.580464,61.32 L132.580464,63.07 C132.591343,70.3965579 130.562253,77.5814724 126.720464,83.82" id="路径" fill="url(#linearGradient-3)"></path>
            <path d="M21.6904644,89.1 L21.6904644,0 L0.000464431445,22.08 L0.000464431445,89.08 C-0.0923474925,107.271282 13.7362003,122.515248 31.8504644,124.19 L31.8504644,102 C25.880091,100.579503 21.6723567,95.237006 21.6904644,89.1 L21.6904644,89.1 Z" id="路径" fill="#E9406A"></path>
            <path d="M125.560464,61.45 L66.4004644,61.45 C47.2204644,61.45 31.6204644,77.26 31.6204644,96.68 L31.6204644,163.82 L31.6204644,163.82 L53.3104644,185.82 L53.3104644,96.68 C53.2716761,89.4086072 59.129137,83.4795502 66.4004644,83.43 L125.560464,83.43 L126.710464,83.43 C130.55674,77.1929362 132.589392,70.0076684 132.580494,62.68 L132.580494,61.92 C130.251583,61.6270853 127.907608,61.4701526 125.560464,61.45 Z" id="路径" fill="url(#linearGradient-1)"></path>
            <path d="M153.990464,68.92 C153.990464,68.92 153.990464,68.92 153.990464,68.98 C153.658724,72.4928148 153.033202,75.9716531 152.120464,79.38 C151.049458,83.3403839 149.575076,87.1804767 147.720464,90.84 C157.909034,98.2715169 163.92705,110.129127 163.910464,122.74 L163.910464,124.49 C163.910464,146.17 146.490464,163.81 125.090464,163.81 L68.5604644,163.81 L68.5604644,185.81 L125.080464,185.81 C158.440464,185.81 185.590593,158.31 185.590593,124.52 L185.590593,122.77 C185.636018,100.408449 173.534499,79.7860819 153.990464,68.92 L153.990464,68.92 Z" id="路径" fill="url(#linearGradient-4)"></path>
            <path d="M126.720464,83.79 C119.715398,95.3296374 107.219712,102.402953 93.7204644,102.47 L53.3204644,102.47 L53.3204644,124.470004 L93.7704644,124.470004 C102.404241,124.473136 110.93517,122.596332 118.770464,118.97 C122.581197,117.208193 126.197484,115.053168 129.560464,112.54 C132.93961,110.024278 136.052486,107.169412 138.850464,104.02 C145.109895,96.9342178 149.663004,88.5087425 152.160464,79.39 C153.077999,75.9827263 153.703594,72.5034797 154.030464,68.99 C154.217131,67.03 154.313798,65.0466667 154.320464,63.04 L154.320464,61.29 C154.320464,27.49 127.180464,0 93.8204644,0 L37.6204644,0 L37.6204644,22 L93.7704644,22 C115.170464,22 132.580464,39.64 132.580464,61.32 L132.580464,63.07 C132.591343,70.3965579 130.562253,77.5814724 126.720464,83.82" id="路径" fill="url(#linearGradient-3)"></path>
            <polygon id="路径" fill="url(#linearGradient-5)" points="74.7704644 102.52 53.3204644 102.52 53.3204644 124.52 74.7704644 124.52"></polygon>
            <path d="M153.990464,68.92 C153.990464,68.92 153.990464,68.92 153.990464,68.98 C153.830464,70.74 153.590464,72.49 153.270464,74.22 C152.950464,75.95 152.580464,77.68 152.120464,79.38 C151.880464,80.28 151.610464,81.16 151.320464,82.05 C151.270464,82.21 151.220464,82.38 151.160464,82.55 C150.870464,83.44 150.550464,84.33 150.220464,85.2 L150.220464,85.28 C149.860464,86.2 149.490464,87.1 149.090464,88 C149.094229,88.0298819 149.094229,88.0601181 149.090464,88.09 C148.680464,89.02 148.250464,89.93 147.790464,90.84 L147.790464,90.84 C153.710581,95.1628046 158.309192,101.049581 161.070464,107.84 C164.130464,103.67 170.650464,94.01 172.340464,84.39 C167.302157,78.0753139 161.06614,72.8180282 153.990464,68.92 L153.990464,68.92 Z" id="路径" fill="url(#linearGradient-6)"></path>
        </g>
    </g>
</svg>
